<svg width="56" height="56" viewBox="0 0 56 56" fill="none" xmlns="http://www.w3.org/2000/svg">
<path d="M27.9998 4.66663C40.8865 4.66663 51.3332 15.1133 51.3332 28C51.3332 40.8866 40.8865 51.3333 27.9998 51.3333C15.1132 51.3333 4.6665 40.8866 4.6665 28C4.6665 15.1133 15.1132 4.66663 27.9998 4.66663ZM27.9998 7.58329C16.724 7.58329 7.58317 16.7241 7.58317 28C7.58317 39.2758 16.724 48.4166 27.9998 48.4166C39.2757 48.4166 48.4165 39.2758 48.4165 28C48.4165 16.7241 39.2757 7.58329 27.9998 7.58329ZM20.746 18.6958L20.8644 18.8021L27.9998 25.9385L35.1353 18.8021C35.6669 18.2705 36.5066 18.2351 37.0793 18.6958L37.1977 18.8021C37.7293 19.3336 37.7647 20.1734 37.304 20.7461L37.1977 20.8645L30.0613 28L37.1977 35.1354C37.7293 35.667 37.7647 36.5068 37.304 37.0794L37.1977 37.1978C36.6662 37.7294 35.8264 37.7648 35.2537 37.3041L35.1353 37.1978L27.9998 30.0615L20.8644 37.1978C20.3328 37.7294 19.493 37.7648 18.9204 37.3041L18.802 37.1978C18.2704 36.6663 18.235 35.8265 18.6957 35.2538L18.802 35.1354L25.9383 28L18.802 20.8645C18.2704 20.3329 18.235 19.4932 18.6957 18.9205L18.802 18.8021C19.3335 18.2705 20.1733 18.2351 20.746 18.6958Z" fill="#47848D"/>
</svg>
