<svg width="56" height="56" viewBox="0 0 56 56" fill="none" xmlns="http://www.w3.org/2000/svg">
<path d="M16.9168 4.66663C14.0173 4.66663 11.6668 7.01713 11.6668 9.91663V22.2497C12.2736 22.3367 12.8597 22.4906 13.4168 22.7037C13.974 22.4906 14.5601 22.3367 15.1668 22.2497V9.91663C15.1668 8.95013 15.9503 8.16663 16.9168 8.16663H36.7502C37.7167 8.16663 38.5002 8.95013 38.5002 9.91663V39.6666H26.8335V43.1666H42.5835C46.7717 43.1666 50.1668 39.7715 50.1668 35.5833V28H42.0002V9.91663C42.0002 7.01713 39.6497 4.66663 36.7502 4.66663H16.9168ZM42.5835 39.6666H42.0002V31.5H46.6668V35.5833C46.6668 37.8385 44.8387 39.6666 42.5835 39.6666ZM25.6079 31.5H33.2502C34.2167 31.5 35.0002 30.7165 35.0002 29.75C35.0002 28.7835 34.2167 28 33.2502 28H24.1622C24.3823 28.7393 24.5004 29.5225 24.5004 30.3333V30.7264C24.9122 30.9221 25.286 31.1846 25.6079 31.5ZM20.5426 23.3333H33.2502C34.2167 23.3333 35.0002 22.5498 35.0002 21.5833C35.0002 20.6168 34.2167 19.8333 33.2502 19.8333H20.4169C19.4504 19.8333 18.6669 20.6168 18.6669 21.5833C18.6669 21.9678 18.7909 22.3234 19.0011 22.6121C19.5431 22.7993 20.0592 23.042 20.5426 23.3333ZM20.4169 11.6666C19.4504 11.6666 18.6669 12.4501 18.6669 13.4166C18.6669 14.3831 19.4504 15.1666 20.4169 15.1666H33.2502C34.2167 15.1666 35.0002 14.3831 35.0002 13.4166C35.0002 12.4501 34.2167 11.6666 33.2502 11.6666H20.4169ZM2.3335 34.4168C2.3335 33.4503 3.117 32.6668 4.0835 32.6668H4.66683V30.3335C4.66683 27.1118 7.27853 24.5001 10.5002 24.5001C11.5627 24.5001 12.5589 24.7842 13.4169 25.2806C14.2749 24.7841 15.2712 24.5 16.3337 24.5C19.5554 24.5 22.1671 27.1117 22.1671 30.3334V32.6668H22.7502C23.7167 32.6668 24.5002 33.4503 24.5002 34.4168V48.4168C24.5002 51.3163 22.1497 53.6668 19.2502 53.6668H7.5835C4.684 53.6668 2.3335 51.3163 2.3335 48.4168V34.4168ZM16.3335 30.3335V32.6668H18.6671V30.3334C18.6671 29.0447 17.6224 28 16.3337 28C16.1743 28 16.0186 28.016 15.8681 28.0465C16.1677 28.7488 16.3335 29.5218 16.3335 30.3335ZM12.8335 32.6668V30.3335C12.8335 29.0448 11.7888 28.0001 10.5002 28.0001C9.21151 28.0001 8.16683 29.0448 8.16683 30.3335V32.6668H12.8335Z" fill="#47848D"/>
</svg>
